<?xml version="1.0" encoding="UTF-8"?>
<svg xmlns="http://www.w3.org/2000/svg" width="291" height="56" viewBox="0 0 291 56" fill="none" role="img" aria-label="HOW THIS IS BUILT"><title>HOW THIS IS BUILT</title><defs><linearGradient id="border" x1="0" y1="0" x2="1" y2="0"><stop offset="0%" stop-color="#FF006E"></stop><stop offset="35%" stop-color="#8338EC"></stop><stop offset="70%" stop-color="#00E5FF"></stop><stop offset="100%" stop-color="#06FFA5"></stop><animateTransform attributeName="gradientTransform" type="translate" values="-1 0;1 0" dur="4s" repeatCount="indefinite"></animateTransform></linearGradient><linearGradient id="fill" x1="0" y1="0" x2="0.3" y2="1"><stop offset="0%" stop-color="#111938"></stop><stop offset="100%" stop-color="#080c1c"></stop></linearGradient><linearGradient id="sheen" x1="0" y1="0" x2="1" y2="0"><stop offset="0%" stop-color="#ffffff" stop-opacity="0"></stop><stop offset="45%" stop-color="#ffffff" stop-opacity="0"></stop><stop offset="50%" stop-color="#ffffff" stop-opacity="0.22"></stop><stop offset="55%" stop-color="#ffffff" stop-opacity="0"></stop><stop offset="100%" stop-color="#ffffff" stop-opacity="0"></stop><animateTransform attributeName="gradientTransform" type="translate" values="-1 0;1 0;1 0" keyTimes="0;0.6;1" dur="3.6s" repeatCount="indefinite"></animateTransform></linearGradient><filter id="glow" x="-50%" y="-50%" width="200%" height="200%"><feGaussianBlur stdDeviation="3.5"></feGaussianBlur></filter></defs><rect x="4" y="4" width="283" height="48" rx="24" fill="#8338EC" opacity="0.35" filter="url(#glow)"><animate attributeName="opacity" values="0.14;0.36;0.14" dur="3s" repeatCount="indefinite"></animate></rect><rect x="4" y="4" width="283" height="48" rx="24" fill="url(#fill)"></rect><rect x="4.9" y="4.9" width="281.2" height="46.2" rx="23.1" fill="none" stroke="#8338EC" stroke-width="1.4" stroke-opacity="0.7"></rect><rect x="4" y="4" width="283" height="48" rx="24" fill="url(#sheen)"></rect><g transform="translate(32.5 28)"><g transform="scale(0.708) translate(-12 -12)"><path d="M14.23 12.004a2.236 2.236 0 0 1-2.235 2.236 2.236 2.236 0 0 1-2.236-2.236 2.236 2.236 0 0 1 2.235-2.236 2.236 2.236 0 0 1 2.236 2.236zm2.648-10.69c-1.346 0-3.107.96-4.888 2.622-1.78-1.653-3.542-2.602-4.887-2.602-.41 0-.783.093-1.106.278-1.375.793-1.683 3.264-.973 6.365C1.98 8.917 0 10.42 0 12.004c0 1.59 1.99 3.097 5.043 4.03-.704 3.113-.39 5.588.988 6.38.32.187.69.275 1.102.275 1.345 0 3.107-.96 4.888-2.624 1.78 1.654 3.542 2.603 4.887 2.603.41 0 .783-.09 1.106-.275 1.374-.792 1.683-3.263.973-6.365C22.02 15.096 24 13.59 24 12.004c0-1.59-1.99-3.097-5.043-4.032.704-3.11.39-5.587-.988-6.38-.318-.184-.688-.277-1.092-.278zm-.005 1.09v.006c.225 0 .406.044.558.127.666.382.955 1.835.73 3.704-.054.46-.142.945-.25 1.44-.96-.236-2.006-.417-3.107-.534-.66-.905-1.345-1.727-2.035-2.447 1.592-1.48 3.087-2.292 4.105-2.295zm-9.77.02c1.012 0 2.514.808 4.11 2.28-.686.72-1.37 1.537-2.02 2.442-1.107.117-2.154.298-3.113.538-.112-.49-.195-.964-.254-1.42-.23-1.868.054-3.32.714-3.707.19-.09.4-.127.563-.132zm4.882 3.05c.455.468.91.992 1.36 1.564-.44-.02-.89-.034-1.345-.034-.46 0-.915.01-1.36.034.44-.572.895-1.096 1.345-1.565zM12 8.1c.74 0 1.477.034 2.202.093.406.582.802 1.203 1.183 1.86.372.64.71 1.29 1.018 1.946-.308.655-.646 1.31-1.013 1.95-.38.66-.773 1.288-1.18 1.87-.728.063-1.466.098-2.21.098-.74 0-1.477-.035-2.202-.093-.406-.582-.802-1.204-1.183-1.86-.372-.64-.71-1.29-1.018-1.946.303-.657.646-1.313 1.013-1.954.38-.66.773-1.286 1.18-1.868.728-.064 1.466-.098 2.21-.098zm-3.635.254c-.24.377-.48.763-.704 1.16-.225.39-.435.782-.635 1.174-.265-.656-.49-1.31-.676-1.947.64-.15 1.315-.283 2.015-.386zm7.26 0c.695.103 1.365.23 2.006.387-.18.632-.405 1.282-.66 1.933-.2-.39-.41-.783-.64-1.174-.225-.392-.465-.774-.705-1.146zm3.063.675c.484.15.944.317 1.375.498 1.732.74 2.852 1.708 2.852 2.476-.005.768-1.125 1.74-2.857 2.475-.42.18-.88.342-1.355.493-.28-.958-.646-1.956-1.1-2.98.45-1.017.81-2.01 1.085-2.964zm-13.395.004c.278.96.645 1.957 1.1 2.98-.45 1.017-.812 2.01-1.086 2.964-.484-.15-.944-.318-1.37-.5-1.732-.737-2.852-1.706-2.852-2.474 0-.768 1.12-1.742 2.852-2.476.42-.18.88-.342 1.356-.494zm11.678 4.28c.265.657.49 1.312.676 1.948-.64.157-1.316.29-2.016.39.24-.375.48-.762.705-1.158.225-.39.435-.788.636-1.18zm-9.945.02c.2.392.41.783.64 1.175.23.39.465.772.705 1.143-.695-.102-1.365-.23-2.006-.386.18-.63.406-1.282.66-1.933zM17.92 16.32c.112.493.2.968.254 1.423.23 1.868-.054 3.32-.714 3.708-.147.09-.338.128-.563.128-1.012 0-2.514-.807-4.11-2.28.686-.72 1.37-1.536 2.02-2.44 1.107-.118 2.154-.3 3.113-.54zm-11.83.01c.96.234 2.006.415 3.107.532.66.905 1.345 1.727 2.035 2.446-1.595 1.483-3.092 2.295-4.11 2.295-.22-.005-.406-.05-.553-.132-.666-.38-.955-1.834-.73-3.703.054-.46.142-.944.25-1.438zm4.56.64c.44.02.89.034 1.345.034.46 0 .915-.01 1.36-.034-.44.572-.895 1.095-1.345 1.565-.455-.47-.91-.993-1.36-1.565z" fill="#61DAFB"></path></g></g><path d="M54.14 19.55L56.91 19.55L56.91 24.97L62.56 24.97L62.56 19.55L65.32 19.55L65.32 32.68L62.56 32.68L62.56 27.26L56.91 27.26L56.91 32.68L54.14 32.68ZM82.48 26.12C82.48 30.41 79.81 32.86 76.33 32.86C72.83 32.86 70.18 30.39 70.18 26.12C70.18 21.81 72.83 19.37 76.33 19.37C79.81 19.37 82.48 21.81 82.48 26.12ZM79.66 26.12C79.66 23.33 78.34 21.83 76.33 21.83C74.31 21.83 73 23.33 73 26.12C73 28.9 74.31 30.41 76.33 30.41C78.34 30.41 79.66 28.9 79.66 26.12ZM86.52 19.55L89.55 19.55L91.74 28.68L91.84 28.68L94.23 19.55L96.83 19.55L99.23 28.69L99.34 28.69L101.51 19.55L104.56 19.55L100.8 32.68L98.08 32.68L95.59 24.1L95.48 24.1L92.99 32.68L90.28 32.68ZM114.9 19.55L125.69 19.55L125.69 21.84L121.67 21.84L121.67 32.68L118.93 32.68L118.93 21.84L114.9 21.84ZM130.27 19.55L133.04 19.55L133.04 24.97L138.68 24.97L138.68 19.55L141.45 19.55L141.45 32.68L138.68 32.68L138.68 27.26L133.04 27.26L133.04 32.68L130.27 32.68ZM149.31 32.68L146.54 32.68L146.54 19.55L149.31 19.55ZM161.53 23.32C161.43 22.29 160.61 21.7 159.28 21.7C157.93 21.7 157.18 22.31 157.18 23.16C157.15 24.1 158.11 24.53 159.26 24.79L160.43 25.08C162.72 25.58 164.37 26.74 164.37 28.92C164.37 31.33 162.48 32.86 159.27 32.86C156.09 32.86 154.06 31.39 153.98 28.56L156.67 28.56C156.76 29.87 157.8 30.54 159.25 30.54C160.65 30.54 161.56 29.89 161.57 28.92C161.56 28.04 160.77 27.62 159.34 27.29L157.91 26.92C155.68 26.39 154.32 25.28 154.33 23.35C154.32 20.95 156.42 19.37 159.31 19.37C162.24 19.37 164.15 20.98 164.19 23.32L161.53 23.32ZM178.37 32.68L175.6 32.68L175.6 19.55L178.37 19.55ZM190.59 23.32C190.49 22.29 189.67 21.7 188.34 21.7C186.99 21.7 186.24 22.31 186.24 23.16C186.21 24.1 187.17 24.53 188.32 24.79L189.49 25.08C191.77 25.58 193.42 26.74 193.42 28.92C193.42 31.33 191.54 32.86 188.33 32.86C185.14 32.86 183.12 31.39 183.04 28.56L185.73 28.56C185.82 29.87 186.86 30.54 188.3 30.54C189.71 30.54 190.62 29.89 190.63 28.92C190.62 28.04 189.82 27.62 188.39 27.29L186.96 26.92C184.74 26.39 183.38 25.28 183.39 23.35C183.38 20.95 185.48 19.37 188.37 19.37C191.29 19.37 193.2 20.98 193.24 23.32L190.59 23.32ZM204.65 19.55L209.9 19.55C212.8 19.55 214.27 20.94 214.27 22.92C214.27 24.46 213.26 25.43 211.89 25.74L211.89 25.87C213.39 25.93 214.78 27.1 214.78 29.05C214.78 31.15 213.21 32.68 210.26 32.68L204.65 32.68ZM209.68 30.41C211.24 30.41 211.92 29.77 211.92 28.78C211.92 27.69 211.09 26.92 209.75 26.92L207.42 26.92L207.42 30.41ZM209.49 25.05C210.62 25.05 211.46 24.41 211.46 23.37C211.46 22.42 210.76 21.8 209.54 21.8L207.42 21.8L207.42 25.05ZM230.27 19.55L230.27 28.08C230.27 30.95 228.1 32.86 224.83 32.86C221.55 32.86 219.39 30.95 219.39 28.08L219.39 19.55L222.16 19.55L222.16 27.84C222.16 29.34 223.22 30.42 224.83 30.42C226.45 30.42 227.5 29.34 227.5 27.84L227.5 19.55ZM238.13 32.68L235.36 32.68L235.36 19.55L238.13 19.55ZM243.23 19.55L246 19.55L246 30.39L251.62 30.39L251.62 32.68L243.23 32.68ZM255.76 19.55L266.55 19.55L266.55 21.84L262.54 21.84L262.54 32.68L259.79 32.68L259.79 21.84L255.76 21.84Z" fill="#e8ecff" fill-rule="evenodd"></path></svg>
