<?xml version="1.0" encoding="UTF-8"?>
<svg xmlns="http://www.w3.org/2000/svg" width="411" height="66" viewBox="0 0 411 66" fill="none" role="img" aria-label="LAUNCH 3D EXPERIENCE"><title>LAUNCH 3D EXPERIENCE</title><defs><linearGradient id="border" x1="0" y1="0" x2="1" y2="0"><stop offset="0%" stop-color="#FF006E"></stop><stop offset="35%" stop-color="#8338EC"></stop><stop offset="70%" stop-color="#00E5FF"></stop><stop offset="100%" stop-color="#06FFA5"></stop><animateTransform attributeName="gradientTransform" type="translate" values="-1 0;1 0" dur="4s" repeatCount="indefinite"></animateTransform></linearGradient><linearGradient id="fill" x1="0" y1="0" x2="0.3" y2="1"><stop offset="0%" stop-color="#111938"></stop><stop offset="100%" stop-color="#080c1c"></stop></linearGradient><linearGradient id="sheen" x1="0" y1="0" x2="1" y2="0"><stop offset="0%" stop-color="#ffffff" stop-opacity="0"></stop><stop offset="45%" stop-color="#ffffff" stop-opacity="0"></stop><stop offset="50%" stop-color="#ffffff" stop-opacity="0.22"></stop><stop offset="55%" stop-color="#ffffff" stop-opacity="0"></stop><stop offset="100%" stop-color="#ffffff" stop-opacity="0"></stop><animateTransform attributeName="gradientTransform" type="translate" values="-1 0;1 0;1 0" keyTimes="0;0.6;1" dur="3.6s" repeatCount="indefinite"></animateTransform></linearGradient><filter id="glow" x="-50%" y="-50%" width="200%" height="200%"><feGaussianBlur stdDeviation="3.5"></feGaussianBlur></filter></defs><rect x="4" y="4" width="403" height="58" rx="29" fill="url(#border)" opacity="0.35" filter="url(#glow)"><animate attributeName="opacity" values="0.3;0.7;0.3" dur="3s" repeatCount="indefinite"></animate></rect><rect x="4" y="4" width="403" height="58" rx="29" fill="url(#fill)"></rect><rect x="4.9" y="4.9" width="401.2" height="56.2" rx="28.1" fill="none" stroke="url(#border)" stroke-width="2" stroke-opacity="1"></rect><rect x="4" y="4" width="403" height="58" rx="29" fill="url(#sheen)"></rect><g transform="translate(39 33)"><circle r="10.5" fill="#00E5FF" fill-opacity="0.16"></circle><path d="M-3.4 -5.6L6 0L-3.4 5.6Z" fill="#00E5FF"><animateTransform attributeName="transform" type="translate" values="0 0;2.5 0;0 0" dur="1.8s" repeatCount="indefinite"></animateTransform></path></g><path d="M61.32 23.25L64.52 23.25L64.52 35.76L71.01 35.76L71.01 38.4L61.32 38.4ZM75.72 38.4L80.95 23.25L85.08 23.25L90.3 38.4L86.86 38.4L85.74 34.95L80.28 34.95L79.15 38.4ZM84.94 32.45L83.07 26.72L82.95 26.72L81.08 32.45ZM108.08 23.25L108.08 33.09C108.08 36.41 105.58 38.61 101.81 38.61C98.02 38.61 95.53 36.41 95.53 33.09L95.53 23.25L98.72 23.25L98.72 32.82C98.72 34.55 99.95 35.79 101.81 35.79C103.67 35.79 104.89 34.55 104.89 32.82L104.89 23.25ZM126.8 38.4L124.02 38.4L117.44 28.86L117.32 28.86L117.32 38.4L114.12 38.4L114.12 23.25L116.93 23.25L123.47 32.78L123.6 32.78L123.6 23.25L126.8 23.25ZM142.96 28.56C142.72 26.9 141.45 25.88 139.69 25.88C137.35 25.88 135.82 27.67 135.82 30.83C135.82 34.07 137.38 35.78 139.67 35.78C141.39 35.78 142.66 34.85 142.96 33.23L146.2 33.24C145.85 36.03 143.5 38.61 139.63 38.61C135.57 38.61 132.57 35.76 132.57 30.83C132.57 25.86 135.63 23.04 139.63 23.04C143.13 23.04 145.78 25.05 146.2 28.56ZM151.91 23.25L155.1 23.25L155.1 29.51L161.61 29.51L161.61 23.25L164.81 23.25L164.81 38.4L161.61 38.4L161.61 32.14L155.1 32.14L155.1 38.4L151.91 38.4ZM184.1 38.61C180.77 38.61 178.4 36.77 178.36 34.11L181.58 34.11C181.65 35.22 182.71 35.97 184.12 35.97C185.57 35.97 186.61 35.13 186.61 33.93C186.61 32.71 185.54 31.86 183.82 31.86L182.41 31.86L182.41 29.51L183.82 29.51C185.29 29.51 186.29 28.7 186.29 27.49C186.29 26.37 185.44 25.58 184.13 25.58C182.83 25.58 181.77 26.33 181.74 27.48L178.66 27.48C178.71 24.85 181.04 23.04 184.15 23.04C187.28 23.04 189.38 24.92 189.37 27.32C189.38 29.01 188.21 30.21 186.52 30.51L186.52 30.63C188.74 30.92 189.94 32.27 189.94 34.14C189.94 36.74 187.51 38.61 184.1 38.61ZM195.74 38.4L195.74 23.25L201.15 23.25C205.73 23.25 208.52 26.09 208.52 30.81C208.52 35.55 205.73 38.4 201.11 38.4ZM200.97 35.66C203.82 35.66 205.32 34.19 205.32 30.81C205.32 27.45 203.82 25.99 200.97 25.99L198.93 25.99L198.93 35.66ZM222.04 23.25L232.24 23.25L232.24 25.89L225.23 25.89L225.23 29.51L231.71 29.51L231.71 32.14L225.23 32.14L225.23 35.76L232.27 35.76L232.27 38.4L222.04 38.4ZM244.26 28.41L244.38 28.41L247.44 23.25L251.06 23.25L246.44 30.83L251.16 38.4L247.49 38.4L244.38 33.23L244.26 33.23L241.16 38.4L237.48 38.4L242.22 30.83L237.57 23.25L241.2 23.25ZM256.48 23.25L262.46 23.25C265.9 23.25 267.89 25.37 267.89 28.38C267.89 31.41 265.86 33.49 262.38 33.49L259.68 33.49L259.68 38.4L256.48 38.4ZM261.85 30.92C263.7 30.92 264.58 29.88 264.58 28.38C264.58 26.88 263.7 25.86 261.84 25.86L259.68 25.86L259.68 30.92ZM273.38 23.25L283.58 23.25L283.58 25.89L276.58 25.89L276.58 29.51L283.06 29.51L283.06 32.14L276.58 32.14L276.58 35.76L283.61 35.76L283.61 38.4L273.38 38.4ZM289.55 23.25L295.52 23.25C298.97 23.25 300.95 25.19 300.95 28.2C300.95 30.27 300 31.77 298.28 32.5L301.49 38.4L297.96 38.4L295.08 33.03L292.74 33.03L292.74 38.4L289.55 38.4ZM294.92 30.45C296.77 30.45 297.65 29.7 297.65 28.2C297.65 26.69 296.77 25.86 294.9 25.86L292.74 25.86L292.74 30.45ZM309.81 38.4L306.61 38.4L306.61 23.25L309.81 23.25ZM315.86 23.25L326.06 23.25L326.06 25.89L319.06 25.89L319.06 29.51L325.54 29.51L325.54 32.14L319.06 32.14L319.06 35.76L326.09 35.76L326.09 38.4L315.86 38.4ZM344.71 38.4L341.93 38.4L335.35 28.86L335.23 28.86L335.23 38.4L332.03 38.4L332.03 23.25L334.84 23.25L341.38 32.78L341.51 32.78L341.51 23.25L344.71 23.25ZM360.87 28.56C360.63 26.9 359.35 25.88 357.6 25.88C355.26 25.88 353.73 27.67 353.73 30.83C353.73 34.07 355.29 35.78 357.59 35.78C359.29 35.78 360.57 34.85 360.87 33.23L364.11 33.24C363.76 36.03 361.41 38.61 357.54 38.61C353.48 38.61 350.48 35.76 350.48 30.83C350.48 25.86 353.54 23.04 357.54 23.04C361.04 23.04 363.69 25.05 364.11 28.56ZM369.82 23.25L380.02 23.25L380.02 25.89L373.01 25.89L373.01 29.51L379.49 29.51L379.49 32.14L373.01 32.14L373.01 35.76L380.05 35.76L380.05 38.4L369.82 38.4Z" fill="#e8ecff" fill-rule="evenodd"></path></svg>
